<?xml version="1.0" encoding="UTF-8" standalone="no"?>
<svg
   width="2053.998"
   height="366.03299"
   viewBox="0 0 2053.998 366.03299"
   role="img"
   aria-label="EDDYFLOW logo"
   shape-rendering="geometricPrecision"
   version="1.1"
   id="svg6"
   sodipodi:docname="eddyflow_logo.svg"
   inkscape:version="1.3.2 (091e20e, 2023-11-25, custom)"
   inkscape:export-filename="app-logo-small-hover@2x.png"
   inkscape:export-xdpi="36.45573"
   inkscape:export-ydpi="36.45573"
   xmlns:inkscape="http://www.inkscape.org/namespaces/inkscape"
   xmlns:sodipodi="http://sodipodi.sourceforge.net/DTD/sodipodi-0.dtd"
   xmlns="http://www.w3.org/2000/svg"
   xmlns:svg="http://www.w3.org/2000/svg"
   xmlns:rdf="http://www.w3.org/1999/02/22-rdf-syntax-ns#"
   xmlns:cc="http://creativecommons.org/ns#"
   xmlns:dc="http://purl.org/dc/elements/1.1/">
  <sodipodi:namedview
     id="namedview6"
     pagecolor="#ffffff"
     bordercolor="#000000"
     borderopacity="0.25"
     inkscape:showpageshadow="2"
     inkscape:pageopacity="0.0"
     inkscape:pagecheckerboard="0"
     inkscape:deskcolor="#d1d1d1"
     inkscape:zoom="0.55494456"
     inkscape:cx="1040.6445"
     inkscape:cy="-36.039636"
     inkscape:window-width="1920"
     inkscape:window-height="992"
     inkscape:window-x="-8"
     inkscape:window-y="-8"
     inkscape:window-maximized="1"
     inkscape:current-layer="svg6" />
  <title
     id="title1">EDDYFLOW logo</title>
  <defs
     id="defs6">
    <linearGradient
       id="eddyflow-gradient"
       x1="0"
       y1="0"
       x2="2054"
       y2="0"
       gradientUnits="userSpaceOnUse"
       gradientTransform="translate(0.90916843,15.958213)">
      <stop
         offset="0%"
         stop-color="#0A4CCB"
         id="stop1" />
      <stop
         offset="20%"
         stop-color="#0799E5"
         id="stop2" />
      <stop
         offset="45%"
         stop-color="#08A5DA"
         id="stop3" />
      <stop
         offset="57%"
         stop-color="#24BFA5"
         id="stop4" />
      <stop
         offset="76%"
         stop-color="#56C85D"
         id="stop5" />
      <stop
         offset="100%"
         stop-color="#8DD82E"
         id="stop6" />
    </linearGradient>
  </defs>
  <path
     d="m 1701.9092,51.958213 c 7.5347,61.787507 34.8944,117.591827 50.1243,176.807147 6.1502,23.9128 19.3737,57.99752 44.8757,54.19285 39.6352,-5.91321 36.7112,-58.26979 50.6002,-88.38452 6.7536,-14.64341 13.9741,-70.01289 27.3533,-30.1889 12.3853,36.86562 17.6555,79.07321 41.3769,109.87906 17.9625,23.32704 52.8286,-1.25541 58.8092,-28.19261 14.3085,-64.44726 40.0685,-127.24231 53.9817,-191.067161 -9.4504,-16.09809 -46.0054,-5.716539 -51.2415,13.846753 -12.1165,45.269988 -17.6376,91.982878 -38.8798,135.107378 -18.6564,-11.11291 -21.2782,-41.43026 -27.632,-66.69648 -6.8739,-27.33451 -8.6217,-68.617334 -47.4692,-74.303517 -29.0817,8.875019 -37.5776,45.243417 -42.5519,71.824727 -4.3398,23.19101 -11.097,51.47374 -25.3662,66.67768 -13.7709,-14.55117 -18.8116,-46.60019 -24.2787,-69.53062 -7.0178,-29.43435 -7.3427,-64.86048 -33.4826,-80.425864 -9.7529,-5.80748 -37.6582,-11.344365 -36.2194,0.454077 z m -1392.00003,-4 c -21.42229,21.057058 -9.9228,55.445977 -11,82.809447 -1.1573,29.39804 -4.23488,61.53866 3,89.19055 27.15395,4.94165 45.84377,-17.22082 46.12031,-45.15118 l 0.87969,-88.848817 c 46.03384,3.201652 108.78526,-12.124531 135.81232,36.148097 26.84544,47.94824 -8.53798,113.63437 -64.77508,118.62803 -34.82294,3.09216 -72.09838,-3.81486 -105.14923,6.10314 -18.0029,18.40575 -16.69214,37.21854 12.36435,35.96613 60.38561,-2.60277 130.54581,13.03534 179.47604,-32.5738 C 568.00559,193.02709 549.75572,65.490015 462.15091,48.89084 414.04892,39.776576 362.84793,43.00041 314.11648,46.38047 l -3.79268,1.422258 z m 265,6 c -11.16953,39.02418 -1.16763,81.891387 -5,122.365947 -2.3295,24.60237 -2.6998,57.47126 30.54085,39.66691 31.84701,-21.00253 21.25232,-64.75845 19.13422,-96.88959 -2.35108,-35.665315 11.71333,-33.216691 40.83084,-33.143267 41.64679,0.105018 93.37307,10.09458 102.06693,58.009877 9.5087,52.40623 -34.64176,95.46203 -86.67353,95.53075 -30.45669,0.0402 -63.75897,-2.9177 -91.89931,8.45937 -24.31637,23.13647 -5.42536,35.37487 24.40473,34 57.90612,-2.6689 132.09715,6.41912 175.08209,-39.19734 54.85791,-58.21629 31.16229,-173.839621 -51.40086,-192.533854 -46.7819,-10.592518 -95.47489,-2.73313 -143.08596,-5.268803 -5.39494,2.126512 -10.48015,4.132363 -14,9 z m 674.00003,-8 c -39.5238,-3.470968 -81.266,-5.126462 -121,0 -53.5689,6.911435 -73.7642,59.569907 -75,115.404727 -0.8358,37.76311 -3.096,77.36796 2.2469,113.96557 21.8509,17.0113 50.4007,-9.93594 46.0531,-36.56989 -3.2212,-19.73363 -4.6898,-50.67505 24.7504,-51.84396 34.1262,-1.35496 71.8222,6.65878 103.025,-7.59254 26.5696,-22.65387 -5.556,-32.2049 -27.4801,-32.36391 -32.7214,-0.23732 -68.6513,-6.66211 -97.6459,10 -10.6717,-28.10427 9.7831,-69.0566 45.9054,-71.337854 30.7445,-1.941624 64.8219,5.720694 93.156,-5.371845 10.991,-6.688202 15.209,-24.657492 5.9892,-34.290298 z m 421,36 c -54.2919,-64.79704 -170.812,-51.82107 -207.5956,25.723077 -20.8801,44.01761 -13.6965,98.28758 15.5956,136.27692 -5.6207,-29.07488 -4.0511,-71.09729 11.6752,-98.62409 10.7264,-18.77517 35.1773,-52.537561 71.1243,-58.966693 56.0216,-10.019497 106.4023,48.930553 83.3053,102.170643 -13.6114,31.37516 -52.2735,48.37024 -80.1048,26.42014 25.1646,50.41622 104.8648,36.12689 125.4259,-12.34115 16.9708,-40.00481 8.003,-87.92257 -19.4259,-120.658847 z m -618,-34 c -34.8639,-13.821099 -65.1968,15.205074 -79.02357,46.71166 -33.19897,75.649357 -77.79122,154.749317 -157.20388,190.282277 -47.35427,21.18853 -99.11121,29.37405 -150.77258,30.00606 45.00731,11.38735 99.28987,12.6157 147.99972,8.36005 59.29221,-5.1802 112.60244,-40.77203 141.66275,-92.7842 33.47625,-59.91581 69.70216,-120.32811 97.33756,-182.575847 z m -790.00003,2 c -25.1568,-9.30992 -63.09086,-5.851331 -91.90802,-5.382135 -50.43052,0.821101 -105.763336,11.890094 -130.334296,59.854312 -12.827406,25.03999 -17.80378,54.13837 -12.757686,81.52782 47.673663,-24.5947 101.701622,-16.47784 151.000002,-2 30.89255,5.94219 69.29547,1.9272 90,-24 -59.83209,1.45083 -117.88029,-33.9139 -178.000002,-16 -24.695182,-2.94662 6.685113,-41.27726 20.000002,-47.999997 43.10748,-21.765128 94.2446,-3.317912 140,-12 9.97504,-8.845622 18.9572,-20.195339 12,-34 z m 1028.00003,-4 c -11.4967,21.63619 -4.6961,50.980804 -5,75.860037 -0.5248,42.97226 -8.0006,87.85841 4,129.13996 10.1653,34.9684 64.4125,32.6013 101.9912,31.54839 23.8809,-0.66912 64.9877,-1.64568 69.0088,-10.64151 -4.0605,-39.07724 -53.9355,-34.14643 -81.7083,-32.90688 -23.2148,1.03611 -47.0572,-4.42014 -45.2917,-33.15177 2.9235,-47.57516 5.9837,-97.08485 -2.8115,-143.471186 -3.1145,-16.426176 -25.5079,-22.826846 -40.1885,-16.377041 z M 31.909168,202.95821 c 12.072617,55.23027 72.405342,83.9897 125.303542,80 36.38435,-2.74419 73.61077,1.36576 109.69646,-1 15.72434,-23.18475 -14.57404,-41.25936 -39.25295,-40 -45.72163,2.33316 -112.88918,19.97607 -135.747052,-29 -11.938924,-25.58075 -24.040567,-27.18147 -45.443833,-16.91292 -5.098804,1.70935 -9.668373,4.70262 -14.556167,6.91292 z m 1492.000032,-53 c -51.0037,40.55281 -20.829,127.90782 40.9812,138.74648 41.6213,7.29847 90.0577,-7.65593 113.0188,-43.74648 -42.6589,32.34136 -122.1311,19.40789 -135,-38 -7.336,-32.7259 25.2984,-67.8169 59,-59 -18.4102,-19.92177 -57.5928,-14.22568 -78,2 z M 805.90917,47.958213 c 13.89874,34.930087 31.06323,70.395437 50,102.999997 9.60899,16.54438 31.288,34.03255 50,33 7.16863,-13.64158 29.41238,-32.89813 8.1358,-41.8642 -30.01296,-28.20929 -29.9428,-91.393729 -78.1358,-97.135797 -10.115,-1.205175 -21.08184,-2.054577 -30,3 z"
     fill="url(#eddyflow-gradient)"
     fill-rule="evenodd"
     id="path6"
     style="fill:url(#eddyflow-gradient)"
     sodipodi:nodetypes="ssssssscscscscssscscscsscsssccccscsssscssscccsscsscscsccsscssscsscsscssccssccccscccssscsssccscssccsscscscsccsc" />
  <metadata
     id="metadata6">
    <rdf:RDF>
      <cc:Work
         rdf:about="">
        <dc:title>EDDYFLOW logo</dc:title>
      </cc:Work>
    </rdf:RDF>
  </metadata>
</svg>
