<?xml version="1.0" encoding="UTF-8" standalone="no"?>
<svg
   width="1010"
   height="1010"
   viewBox="0 0 1010 1010"
   version="1.1"
   id="svg5"
   sodipodi:docname="eddyflow_icon.svg"
   inkscape:version="1.3.2 (091e20e, 2023-11-25, custom)"
   inkscape:export-filename="start@2x.png"
   inkscape:export-xdpi="7.8070736"
   inkscape:export-ydpi="7.8070736"
   xmlns:inkscape="http://www.inkscape.org/namespaces/inkscape"
   xmlns:sodipodi="http://sodipodi.sourceforge.net/DTD/sodipodi-0.dtd"
   xmlns="http://www.w3.org/2000/svg"
   xmlns:svg="http://www.w3.org/2000/svg"
   xmlns:rdf="http://www.w3.org/1999/02/22-rdf-syntax-ns#"
   xmlns:cc="http://creativecommons.org/ns#"
   xmlns:dc="http://purl.org/dc/elements/1.1/">
  <sodipodi:namedview
     id="namedview5"
     pagecolor="#ffffff"
     bordercolor="#000000"
     borderopacity="0.25"
     inkscape:showpageshadow="2"
     inkscape:pageopacity="0.0"
     inkscape:pagecheckerboard="0"
     inkscape:deskcolor="#d1d1d1"
     inkscape:zoom="0.63476874"
     inkscape:cx="626.21231"
     inkscape:cy="433.22864"
     inkscape:window-width="1920"
     inkscape:window-height="992"
     inkscape:window-x="-8"
     inkscape:window-y="-8"
     inkscape:window-maximized="1"
     inkscape:current-layer="svg5" />
  <title
     id="title1">EddyFlow icon vectorized transparent</title>
  <defs
     id="defs5">
    <linearGradient
       id="eddyflowGradient"
       x1="0"
       y1="0"
       x2="1254"
       y2="0"
       gradientUnits="userSpaceOnUse"
       gradientTransform="translate(-117.96674,-105.20177)">
      <stop
         offset="0%"
         stop-color="#1556d6"
         id="stop1" />
      <stop
         offset="28%"
         stop-color="#06a7ec"
         id="stop2" />
      <stop
         offset="52%"
         stop-color="#16b9c6"
         id="stop3" />
      <stop
         offset="73%"
         stop-color="#39c971"
         id="stop4" />
      <stop
         offset="100%"
         stop-color="#86de25"
         id="stop5" />
    </linearGradient>
  </defs>
  <circle
     style="fill:#ffffff;stroke-width:2.64567;stroke-dasharray:7.55905, 3.77953"
     id="path6"
     cx="505"
     cy="505"
     r="473.40076" />
  <path
     d="M 472.03326,6.7982342 C 424.37879,13.242834 376.68878,20.904184 331.98531,40.502304 c -32.98803,14.46204 -64.97929,29.15508 -95.61061,48.33305 -38.55163,24.136806 -72.78682,54.027826 -102.34144,87.962886 -31.44345,36.10385 -56.953545,77.04454 -75.232925,122.02408 -12.77533,31.43588 -24.89215,62.2584 -32.52842,95.44535 -7.77111,33.77296 -11.62093,67.25811 -12.83727,101.81747 -1.11714,31.74093 0.8302,62.54794 7.46549,93.58092 7.48845,35.02317 13.3734,69.88199 28.61271,102.85922 15.51695,33.57804 30.57233,66.61418 51.244095,97.48856 24.31715,36.31898 53.50514,69.44627 86.57905,97.38757 35.89933,30.32823 76.53892,54.12973 120.04043,73.31123 40.92672,18.0462 83.60128,32.4767 127.45956,38.21784 47.90588,6.27102 96.65449,7.96732 144.68952,-2.1859 34.08321,-7.20424 67.54209,-13.70624 100.54273,-25.70944 43.92485,-15.9766 85.30875,-37.1765 121.96503,-65.2369 38.56636,-29.52253 71.84615,-65.19338 100.6419,-105.11949 27.9789,-38.79349 52.7285,-79.27356 68.3581,-123.88051 15.6114,-44.5548 25.6261,-91.14443 25.6332,-139.05583 0.01,-35.38005 1.6567,-70.15008 -4.7958,-105.26248 -6.241,-33.9618 -12.7559,-67.11009 -25.6855,-99.30631 -12.7068,-31.64127 -25.4101,-62.5208 -43.9865,-91.41911 -19.2916,-30.01098 -40.39,-57.67988 -64.32511,-84.12928 C 829.08699,125.81475 796.0082,98.157908 759.51203,76.566934 720.87979,53.712274 679.89728,34.691944 635.22672,25.493554 601.82558,18.615724 569.46696,8.5960942 534.97623,9.1960642 513.9832,9.5612442 492.84007,3.9844045 472.03326,6.7982342 Z m 10,67.9999998 c 39.62715,-1.05595 78.77024,2.53954 117.82432,11.73874 33.89173,7.983214 65.7098,19.215666 97.40004,33.177426 37.20364,16.3908 70.97425,40.09381 100.64373,67.17739 31.77112,29.00204 57.6375,63.50566 78.97048,101.55634 18.98513,33.86298 35.54623,69.4725 44.04573,106.89167 9.9138,43.64566 14.7043,88.01269 12.5134,133.3232 -2.0207,41.78977 -8.2148,83.1962 -21.6169,122.28947 -12.7233,37.11321 -31.65364,71.17395 -54.16927,103.87063 -23.4064,33.99024 -50.19724,65.06165 -81.94613,90.53154 -31.55822,25.31693 -67.22494,44.1317 -105.04072,59.8648 -40.99906,17.0575 -83.85383,28.5779 -127.43033,32.5462 -42.48064,3.8685 -84.9421,-0.7805 -127.14882,-10.1008 -40.03371,-8.8405 -79.00262,-21.8004 -114.36515,-41.44523 -36.75471,-20.4182 -70.39915,-45.86307 -98.77224,-77.83558 -21.84511,-24.61639 -43.2169,-48.54466 -60.8589,-76.55651 -22.66444,-35.98645 -38.99958,-75.40945 -50.522315,-115.79495 -11.16364,-39.12693 -13.08324,-79.84619 -11.9381,-120.9299 1.13087,-40.57181 5.69171,-81.47802 18.57805,-119.48087 13.853655,-40.85554 31.907215,-80.00353 57.937005,-115.3252 19.45996,-26.4066 40.47802,-50.03019 63.94467,-72.82275 28.98261,-28.15007 61.56215,-51.6418 97.57026,-68.68285 37.83097,-17.90373 77.43004,-32.175026 119.65022,-36.453836 15.04355,-1.52459 29.61573,-7.13615 44.73097,-7.53893 z m 36,346.000006 C 505.17643,378.84121 477.87181,341.10311 438.50293,320.60223 393.1006,294.89135 337.68395,289.7661 287.35797,302.67385 c -45.16818,11.91122 -86.64564,38.84944 -112.8769,78.00865 -30.39265,43.31982 -40.69023,97.8934 -34.57887,149.97019 9.35411,10.75541 29.82311,-9.29741 43.02713,-11.80826 43.3756,-11.58414 88.50543,-4.97143 131.08911,6.76862 61.70239,15.38935 128.32734,11.57428 186.71255,-14.17433 18.09713,-2.68935 29.26632,-15.74742 24.91575,-34.27175 1.58962,-19.06116 -5.1895,-37.59376 -7.61348,-56.36873 z m 328,-118 c -28.68345,-13.40715 -61.34562,-4.12904 -91.95052,-6.58074 -37.21353,1.88685 -75.27854,-2.98283 -111.93772,3.3028 -31.17976,4.55974 -55.47256,27.36423 -73.62138,51.29717 -26.18816,42.95844 -13.48985,95.00835 -16.49038,142.57334 v 209.40743 c 9.94781,17.80846 37.37555,11.54815 49.97867,-0.73401 15.07186,-12.21046 17.03821,-31.11825 15.77262,-49.31428 2.63307,-32.9043 -2.09862,-66.8742 6.24871,-98.95171 17.41219,-32.30347 57.439,-25.52966 88.08753,-26 28.92382,-1.06468 59.10163,2.10078 87.265,-1.52915 21.54171,-7.67066 32.62911,-34.09328 18.64747,-53.47085 -21.0042,-24.64925 -56.72825,-11.81081 -84.92255,-15 -33.7798,0.94045 -68.48181,-4.49515 -100.3676,9.54027 -21.64985,11.80759 -7.8499,-23.82333 -11.70985,-35.82197 -2.27359,-28.45437 20.31771,-56.51765 48.88515,-60.11406 35.06153,-5.94821 71.6542,-0.96405 107.31909,-2.60424 25.31401,-2.89946 57.02392,9.0065 75.4654,-14.08593 14.50577,-14.611 8.22206,-39.7967 -6.66964,-51.91407 z m -698,263 c 23.13534,89.16957 115.06393,150.31208 205.64085,147 49.40666,-0.64654 99.75829,-13.9522 141.42089,-40.90314 25.79806,-14.40546 19.24612,-58.53779 -10.7742,-62.4445 -27.20719,-5.93821 -49.43932,19.07621 -76.31791,21.20646 -42.66103,12.8778 -91.48162,12.04863 -130.55617,-11.15209 -28.27561,-17.79501 -48.92083,-45.0639 -59.41346,-76.70673 -14.27703,-5.40899 -33.01628,2.17523 -47.12496,7.84237 -8.86442,3.44009 -16.40026,8.11497 -22.87504,15.15763 z m 306,-127 c 3.10329,31.11786 -35.17039,40.94777 -59.82975,37.57926 -51.1203,0.11538 -102.2485,-26.48817 -153.19151,-9.02704 -19.42734,12.61814 -30.11774,-2.88369 -18.79419,-20.94279 18.81632,-54.05188 77.55915,-88.83325 134.05565,-80.82067 42.77367,2.72242 84.64765,31.5263 97.7598,73.21124 z"
     fill="url(#eddyflowGradient)"
     fill-rule="evenodd"
     id="path5"
     style="fill:url(#eddyflowGradient)"
     sodipodi:nodetypes="ssssssssssssssssssssssssssssssssssssssssssssssssssscccccccccccccccccccccccccccccccccccccccccccc" />
  <metadata
     id="metadata6">
    <rdf:RDF>
      <cc:Work
         rdf:about="">
        <dc:title>EddyFlow icon vectorized transparent</dc:title>
      </cc:Work>
    </rdf:RDF>
  </metadata>
</svg>
